<svg width="33" height="39" viewBox="0 0 33 39" fill="none" xmlns="http://www.w3.org/2000/svg">
<path d="M4.864 38.576C4.608 38.576 4.448 38.528 4.384 38.432L3.52 37.28C3.648 36.896 3.712 36.608 3.712 36.416C3.712 36.288 3.68 36.224 3.616 36.224C3.424 36.224 3.232 36.304 3.04 36.464C2.816 36.624 2.592 36.704 2.368 36.704C2.24 36.672 2.176 36.592 2.176 36.464L2.272 35.84C2.272 35.776 2.24 35.744 2.176 35.744L1.888 35.84L1.504 35.936C1.44 35.872 1.408 35.808 1.408 35.744L1.504 34.976C1.504 34.784 1.456 34.576 1.36 34.352C1.264 34.128 1.184 34.016 1.12 34.016L0.448 33.728C0.544 33.536 0.64 33.328 0.736 33.104C0.832 32.912 0.896 32.704 0.928 32.48C0.928 32.32 0.896 32.096 0.832 31.808C0.8 31.52 0.704 31.168 0.544 30.752C1.024 29.728 1.968 28.352 3.376 26.624C4.784 24.896 6.688 22.752 9.088 20.192C7.456 16.832 5.824 12.992 4.192 8.672L3.952 8.384C3.856 8.256 3.744 8.016 3.616 7.664C3.488 7.28 3.376 6.912 3.28 6.56C3.184 6.176 3.136 5.936 3.136 5.84C3.136 5.744 3.168 5.696 3.232 5.696C3.424 5.696 3.648 5.6 3.904 5.408C4.192 5.184 4.352 4.976 4.384 4.784C4.448 4.624 4.592 4.416 4.816 4.16C5.072 3.904 5.248 3.776 5.344 3.776C5.376 3.776 5.52 3.856 5.776 4.016C5.872 4.048 5.952 4.096 6.016 4.16C6.112 4.192 6.208 4.208 6.304 4.208L6.496 4.16C6.784 4.032 6.976 3.616 7.072 2.912C7.264 3.168 7.44 3.296 7.6 3.296L7.744 3.2C7.872 3.008 7.952 2.848 7.984 2.72C8.08 2.56 8.176 2.48 8.272 2.48L8.416 2.528C8.608 2.72 8.96 3.152 9.472 3.824C9.984 4.496 10.528 5.248 11.104 6.08C11.712 6.912 12.192 7.648 12.544 8.288C12.832 8.8 13.232 9.456 13.744 10.256C14.256 11.024 14.88 11.936 15.616 12.992C17.632 10.752 19.248 8.992 20.464 7.712C21.68 6.4 22.496 5.568 22.912 5.216C23.328 4.864 23.712 4.512 24.064 4.16C24.416 3.808 24.752 3.472 25.072 3.152C25.68 2.48 26.176 1.984 26.56 1.664L28.288 0.319999L28.432 0.367998C28.912 0.687998 29.184 0.975998 29.248 1.232L29.344 1.568L30.016 1.952L29.92 2.48C29.92 2.608 30 2.864 30.16 3.248C30.32 3.6 30.464 3.808 30.592 3.872C30.752 3.872 30.896 3.824 31.024 3.728C31.184 3.632 31.408 3.584 31.696 3.584H31.936L31.744 4.352L32.224 4.448L32.32 5.264C32.32 5.68 32.128 6.016 31.744 6.272L32.128 6.848L26.848 11.984C26.112 12.72 25.168 13.712 24.016 14.96C22.896 16.176 21.6 17.664 20.128 19.424C22.016 21.952 23.504 23.936 24.592 25.376C25.712 26.784 26.432 27.664 26.752 28.016C27.392 28.72 27.712 29.216 27.712 29.504C27.712 29.76 27.616 30.112 27.424 30.56C27.264 31.008 27.072 31.408 26.848 31.76C26.624 32.112 26.432 32.288 26.272 32.288L24.832 32.384L25.216 33.728L25.024 33.872C24.832 33.968 24.688 34.016 24.592 34.016H24.352C24.064 34.016 23.872 34.176 23.776 34.496C23.648 34.848 23.408 35.024 23.056 35.024C22.864 35.024 22.688 34.944 22.528 34.784C22.368 34.624 22.128 34.544 21.808 34.544C21.648 34.544 21.536 34.592 21.472 34.688L21.328 35.024C21.296 35.248 21.248 35.44 21.184 35.6C21.152 35.76 21.12 35.872 21.088 35.936C21.024 36.096 20.896 36.176 20.704 36.176H20.56C20.432 36.176 20.272 36.144 20.08 36.08C19.92 36.016 19.712 35.936 19.456 35.84C18.432 34.752 16.448 32 13.504 27.584L11.248 30.464C10.16 31.84 9.312 32.928 8.704 33.728C8.128 34.56 7.776 35.072 7.648 35.264L7.168 36.128C6.272 37.728 5.76 38.528 5.632 38.528L4.864 38.576Z" fill="#E06362"/>
</svg>
