<svg width="92" height="92" viewBox="0 0 92 92" fill="none" xmlns="http://www.w3.org/2000/svg">
<path d="M46 92C71.4051 92 92 71.4051 92 46C92 20.5949 71.4051 0 46 0C20.5949 0 0 20.5949 0 46C0 71.4051 20.5949 92 46 92Z" fill="#C4C4C4"/>
<path d="M55.1001 52.2C53.2001 52.2 51.7001 53.9 52.0001 55.9C52.3001 57.4 53.7001 58.4 55.2001 58.4H60.0001L62.8001 58C58.3001 64.6 50.6001 67.6 42.1001 66.2C35.2001 65.1 29.3001 60.4 26.8001 53.9C21.1001 39.1 31.9001 24.9 46.0001 24.9C53.3001 24.9 59.8001 29.2 63.5001 34.4V34.5C64.5001 35.9 66.4001 36.3 67.8001 35.3C69.1001 34.4 69.5001 32.6 68.7001 31.2C63.6001 23.2 54.4001 18.1 44.1001 18.8C30.7001 19.9 19.8001 30.9 19.0001 44.4C18.1001 60.1 30.5001 72.8 46.0001 72.8C54.1001 72.8 61.4001 69.3 66.3001 63.5L65.7001 66.8V69.8C65.7001 71.3 66.7001 72.7 68.2001 73C70.2001 73.4 71.9001 71.8 71.9001 69.9V52.2H55.1001Z" fill="#273135"/>
</svg>
