<svg width="32" height="32" xmlns="http://www.w3.org/2000/svg">

 <g>
  <title>background</title>
  <rect fill="none" id="canvas_background" height="402" width="582" y="-1" x="-1"/>
 </g>
 <g>
  <title>Layer 1</title>
  <path fill="#c4c4c4" id="svg_3" d="m26,7l-17,0c-0.6,0 -1,-0.4 -1,-1s0.4,-1 1,-1l17,0c0.6,0 1,0.4 1,1s-0.4,1 -1,1z"/>
  <path fill="#c4c4c4" id="svg_4" d="m26,8l-9,0l0,13l-3,-1l-3,1l0,-13l-2,0c-1.1,0 -2,-0.9 -2,-2s0.9,-2 2,-2l17,0c0.6,0 1,-0.4 1,-1s-0.4,-1 -1,-1l-17,0c-2.2,0 -4,1.8 -4,4l0,20c0,2.2 1.8,4 4,4l17,0c0.6,0 1,-0.4 1,-1l0,-20c0,-0.6 -0.4,-1 -1,-1z"/>
 </g>
</svg>