<svg width="163" height="22" viewBox="0 0 163 22" fill="none" xmlns="http://www.w3.org/2000/svg">
<path d="M15.8145 21H12.3555L3.48242 6.87695V21H0.0234375V1.09375H3.48242L12.3828 15.2715V1.09375H15.8145V21ZM26.0957 21.2734C23.9902 21.2734 22.2812 20.6126 20.9688 19.291C19.6654 17.9603 19.0137 16.1921 19.0137 13.9863V13.5762C19.0137 12.0996 19.2962 10.7826 19.8613 9.625C20.4355 8.45833 21.2376 7.55143 22.2676 6.9043C23.2975 6.25716 24.446 5.93359 25.7129 5.93359C27.7272 5.93359 29.2812 6.57617 30.375 7.86133C31.4779 9.14648 32.0293 10.9648 32.0293 13.3164V14.6562H22.3633C22.4635 15.8776 22.8691 16.8438 23.5801 17.5547C24.3001 18.2656 25.2025 18.6211 26.2871 18.6211C27.8092 18.6211 29.0488 18.0059 30.0059 16.7754L31.7969 18.4844C31.2044 19.3685 30.4115 20.0566 29.418 20.5488C28.4336 21.0319 27.3262 21.2734 26.0957 21.2734ZM25.6992 8.59961C24.7878 8.59961 24.0495 8.91862 23.4844 9.55664C22.9284 10.1947 22.5729 11.0833 22.418 12.2227H28.748V11.9766C28.6751 10.8646 28.3789 10.026 27.8594 9.46094C27.3398 8.88672 26.6198 8.59961 25.6992 8.59961ZM47.6152 16.4199L49.9668 6.20703H53.207L49.1738 21H46.4395L43.2676 10.8418L40.1504 21H37.416L33.3691 6.20703H36.6094L39.002 16.3105L42.0371 6.20703H44.5391L47.6152 16.4199ZM101.469 16.0781L104.531 1.09375H107.963L103.369 21H100.061L96.2734 6.4668L92.4043 21H89.082L84.4883 1.09375H87.9199L91.0098 16.0508L94.8105 1.09375H97.709L101.469 16.0781ZM109.111 13.4668C109.111 12.0176 109.398 10.7142 109.973 9.55664C110.547 8.38997 111.354 7.49674 112.393 6.87695C113.432 6.24805 114.626 5.93359 115.975 5.93359C117.971 5.93359 119.589 6.57617 120.828 7.86133C122.077 9.14648 122.751 10.8509 122.852 12.9746L122.865 13.7539C122.865 15.2122 122.583 16.5156 122.018 17.6641C121.462 18.8125 120.66 19.7012 119.611 20.3301C118.572 20.959 117.369 21.2734 116.002 21.2734C113.915 21.2734 112.242 20.5807 110.984 19.1953C109.736 17.8008 109.111 15.946 109.111 13.6309V13.4668ZM112.434 13.7539C112.434 15.276 112.748 16.4701 113.377 17.3359C114.006 18.1927 114.881 18.6211 116.002 18.6211C117.123 18.6211 117.993 18.1836 118.613 17.3086C119.242 16.4336 119.557 15.153 119.557 13.4668C119.557 11.972 119.233 10.7871 118.586 9.91211C117.948 9.03711 117.077 8.59961 115.975 8.59961C114.89 8.59961 114.029 9.03255 113.391 9.89844C112.753 10.7552 112.434 12.0404 112.434 13.7539ZM133.42 9.24219C132.982 9.16927 132.531 9.13281 132.066 9.13281C130.544 9.13281 129.519 9.71615 128.99 10.8828V21H125.668V6.20703H128.84L128.922 7.86133C129.724 6.57617 130.836 5.93359 132.258 5.93359C132.732 5.93359 133.124 5.9974 133.434 6.125L133.42 9.24219ZM134.623 13.4941C134.623 11.2155 135.152 9.38802 136.209 8.01172C137.266 6.6263 138.684 5.93359 140.461 5.93359C142.029 5.93359 143.296 6.48047 144.262 7.57422V0H147.584V21H144.576L144.412 19.4688C143.419 20.6719 142.092 21.2734 140.434 21.2734C138.702 21.2734 137.298 20.5762 136.223 19.1816C135.156 17.7871 134.623 15.8913 134.623 13.4941ZM137.945 13.7812C137.945 15.2852 138.232 16.4609 138.807 17.3086C139.39 18.1471 140.215 18.5664 141.281 18.5664C142.639 18.5664 143.633 17.9603 144.262 16.748V10.4316C143.651 9.24674 142.667 8.6543 141.309 8.6543C140.233 8.6543 139.404 9.08268 138.82 9.93945C138.237 10.7871 137.945 12.0677 137.945 13.7812ZM159.342 16.9805C159.342 16.388 159.096 15.9368 158.604 15.627C158.12 15.3171 157.314 15.0436 156.184 14.8066C155.053 14.5697 154.11 14.2689 153.354 13.9043C151.695 13.1022 150.865 11.9401 150.865 10.418C150.865 9.14193 151.403 8.07552 152.479 7.21875C153.554 6.36198 154.921 5.93359 156.58 5.93359C158.348 5.93359 159.775 6.37109 160.859 7.24609C161.953 8.12109 162.5 9.25586 162.5 10.6504H159.178C159.178 10.0124 158.941 9.48372 158.467 9.06445C157.993 8.63607 157.364 8.42188 156.58 8.42188C155.851 8.42188 155.254 8.59049 154.789 8.92773C154.333 9.26497 154.105 9.71615 154.105 10.2812C154.105 10.7917 154.32 11.1882 154.748 11.4707C155.176 11.7533 156.042 12.0404 157.346 12.332C158.649 12.6146 159.67 12.9564 160.408 13.3574C161.156 13.7493 161.707 14.2233 162.062 14.7793C162.427 15.3353 162.609 16.0098 162.609 16.8027C162.609 18.1335 162.058 19.2135 160.955 20.043C159.852 20.8633 158.408 21.2734 156.621 21.2734C155.409 21.2734 154.329 21.0547 153.381 20.6172C152.433 20.1797 151.695 19.5781 151.166 18.8125C150.637 18.0469 150.373 17.222 150.373 16.3379H153.6C153.645 17.1217 153.941 17.7279 154.488 18.1562C155.035 18.5755 155.76 18.7852 156.662 18.7852C157.537 18.7852 158.202 18.6211 158.658 18.293C159.114 17.9557 159.342 17.5182 159.342 16.9805Z" fill="#F2F2F2"/>
<path d="M70.1328 3.88281H63.9258V21H60.4941V3.88281H54.3418V1.09375H70.1328V3.88281ZM68.9707 13.4668C68.9707 12.0176 69.2578 10.7142 69.832 9.55664C70.4062 8.38997 71.2129 7.49674 72.252 6.87695C73.291 6.24805 74.485 5.93359 75.834 5.93359C77.8301 5.93359 79.4479 6.57617 80.6875 7.86133C81.9362 9.14648 82.6107 10.8509 82.7109 12.9746L82.7246 13.7539C82.7246 15.2122 82.4421 16.5156 81.877 17.6641C81.321 18.8125 80.5189 19.7012 79.4707 20.3301C78.4316 20.959 77.2285 21.2734 75.8613 21.2734C73.7741 21.2734 72.1016 20.5807 70.8438 19.1953C69.5951 17.8008 68.9707 15.946 68.9707 13.6309V13.4668ZM72.293 13.7539C72.293 15.276 72.6074 16.4701 73.2363 17.3359C73.8652 18.1927 74.7402 18.6211 75.8613 18.6211C76.9824 18.6211 77.8529 18.1836 78.4727 17.3086C79.1016 16.4336 79.416 15.153 79.416 13.4668C79.416 11.972 79.0924 10.7871 78.4453 9.91211C77.8073 9.03711 76.9368 8.59961 75.834 8.59961C74.7493 8.59961 73.888 9.03255 73.25 9.89844C72.612 10.7552 72.293 12.0404 72.293 13.7539Z" fill="#FC7352"/>
</svg>
