<svg width="23" height="23" viewBox="0 0 23 23" fill="none" xmlns="http://www.w3.org/2000/svg">
<rect x="6.5" y="0.5" width="10" height="10" stroke="#C4C4C4"/>
<rect x="0.5" y="11.5" width="10" height="10" stroke="#C4C4C4"/>
<rect x="12.5" y="11.5" width="10" height="10" stroke="#C4C4C4"/>
<path d="M12.9111 9H11.5V3.56055L9.81543 4.08301V2.93555L12.7598 1.88086H12.9111V9Z" fill="#C4C4C4"/>
<path d="M8.35645 20H3.4834V19.0332L5.7832 16.582C6.09896 16.237 6.33171 15.9359 6.48145 15.6787C6.63444 15.4215 6.71094 15.1774 6.71094 14.9463C6.71094 14.6305 6.63118 14.3831 6.47168 14.2041C6.31217 14.0218 6.08431 13.9307 5.78809 13.9307C5.46908 13.9307 5.2168 14.0413 5.03125 14.2627C4.84896 14.4808 4.75781 14.7689 4.75781 15.127H3.3418C3.3418 14.694 3.44434 14.2985 3.64941 13.9404C3.85775 13.5824 4.15072 13.3024 4.52832 13.1006C4.90592 12.8955 5.33398 12.793 5.8125 12.793C6.54492 12.793 7.11296 12.9688 7.5166 13.3203C7.9235 13.6719 8.12695 14.1683 8.12695 14.8096C8.12695 15.1611 8.03581 15.5192 7.85352 15.8838C7.67122 16.2484 7.35872 16.6732 6.91602 17.1582L5.2998 18.8623H8.35645V20Z" fill="#C4C4C4"/>
<path d="M16.9189 15.8203H17.6709C18.029 15.8203 18.2943 15.7308 18.4668 15.5518C18.6393 15.3727 18.7256 15.1351 18.7256 14.8389C18.7256 14.5524 18.6393 14.3294 18.4668 14.1699C18.2975 14.0104 18.0632 13.9307 17.7637 13.9307C17.4935 13.9307 17.2673 14.0055 17.085 14.1553C16.9027 14.3018 16.8115 14.4938 16.8115 14.7314H15.4004C15.4004 14.3604 15.4997 14.0283 15.6982 13.7354C15.9001 13.4391 16.18 13.208 16.5381 13.042C16.8994 12.876 17.2965 12.793 17.7295 12.793C18.4814 12.793 19.0706 12.9736 19.4971 13.335C19.9235 13.693 20.1367 14.1878 20.1367 14.8193C20.1367 15.1449 20.0374 15.4443 19.8389 15.7178C19.6403 15.9912 19.3799 16.2012 19.0576 16.3477C19.458 16.4909 19.7559 16.7057 19.9512 16.9922C20.1497 17.2786 20.249 17.6172 20.249 18.0078C20.249 18.6393 20.0179 19.1455 19.5557 19.5264C19.0967 19.9072 18.488 20.0977 17.7295 20.0977C17.0199 20.0977 16.4388 19.9105 15.9863 19.5361C15.5371 19.1618 15.3125 18.667 15.3125 18.0518H16.7236C16.7236 18.3187 16.8229 18.5368 17.0215 18.7061C17.2233 18.8753 17.4707 18.96 17.7637 18.96C18.099 18.96 18.361 18.8721 18.5498 18.6963C18.7419 18.5173 18.8379 18.2812 18.8379 17.9883C18.8379 17.2786 18.4473 16.9238 17.666 16.9238H16.9189V15.8203Z" fill="#C4C4C4"/>
</svg>
