<svg width="47" height="50" viewBox="0 0 47 50" fill="none" xmlns="http://www.w3.org/2000/svg">
<path d="M10.376 49.816C10.376 49.2613 10.2693 48.984 10.056 48.984L8.584 49.688C8.584 49.3893 8.41333 49.176 8.072 49.048L7.56 48.984C7.21867 48.984 6.792 49.1333 6.28 49.432C6.19467 49.2187 6.088 49.0053 5.96 48.792C5.832 48.5787 5.72533 48.3867 5.64 48.216C5.08533 47.1493 4.53067 45.976 3.976 44.696C3.464 43.3733 2.97333 42.1147 2.504 40.92C2.07733 39.7253 1.736 38.7867 1.48 38.104C1.30933 37.5493 1.11733 36.7173 0.904 35.608C0.690667 34.4987 0.477333 33.0907 0.264 31.384C0.733334 31.6827 1.096 31.832 1.352 31.832C1.65067 31.832 1.928 31.384 2.184 30.488C2.312 30.6587 2.54667 30.744 2.888 30.744C3.144 30.744 3.336 30.6587 3.464 30.488L4.488 28.952L5.64 29.336H5.704C5.78933 29.336 5.87467 29.2933 5.96 29.208C6.04533 29.1227 6.17333 29.0373 6.344 28.952C6.68533 28.7387 6.94133 28.632 7.112 28.632L7.304 28.696C8.37067 29.208 9.05333 30.1467 9.352 31.512C10.12 34.7547 10.888 36.376 11.656 36.376C12.424 36.376 13.32 35.5653 14.344 33.944C14.856 33.1333 15.368 32.1947 15.88 31.128C16.4347 30.0613 16.9893 28.8667 17.544 27.544C17.6293 28.056 17.7147 28.312 17.8 28.312C18.0133 28.312 18.376 27.7787 18.888 26.712C19.4427 25.6453 20.3173 24.1733 21.512 22.296C22.1947 21.144 23.048 19.8427 24.072 18.392C25.1387 16.9413 26.2693 15.448 27.464 13.912C28.6587 12.376 29.8107 10.9253 30.92 9.56C32.072 8.19466 33.096 7.02133 33.992 6.04C34.888 5.05866 35.5493 4.41866 35.976 4.12C37.5973 3.01066 38.8773 1.944 39.816 0.919998C39.7733 1.21866 39.7093 1.496 39.624 1.752C39.5813 1.96533 39.56 2.11466 39.56 2.2C39.56 2.37066 39.6453 2.456 39.816 2.456L41.608 1.56V1.816C41.608 2.15733 41.6933 2.328 41.864 2.328C41.992 2.328 42.248 2.136 42.632 1.752C43.016 1.368 43.2293 1.09067 43.272 0.919998L43.144 1.816L45.32 0.535999L44.808 1.688C45.4907 1.21866 45.9813 0.983997 46.28 0.983997C46.4507 0.983997 46.5787 1.09066 46.664 1.304C46.7493 1.47466 46.792 1.64533 46.792 1.816C46.792 2.072 46.6853 2.37066 46.472 2.712C46.2587 3.05333 45.9813 3.45867 45.64 3.928C45.384 4.26933 44.9573 4.78133 44.36 5.464C43.8053 6.104 42.952 7.064 41.8 8.344C40.648 9.58133 39.112 11.3093 37.192 13.528C36.68 14.0827 35.8907 15.064 34.824 16.472C33.7573 17.8373 32.5413 19.4373 31.176 21.272C29.8533 23.064 28.5307 24.8773 27.208 26.712C25.8853 28.5467 24.712 30.2107 23.688 31.704C22.664 33.1547 21.9387 34.2427 21.512 34.968L17.544 41.688C16.6907 43.1387 15.9867 44.3333 15.432 45.272C14.8773 46.168 14.4507 46.7867 14.152 47.128C13.512 47.896 12.808 48.5787 12.04 49.176L11.464 48.856L10.952 49.176L10.376 49.816Z" fill="#68C160"/>
</svg>
