<svg width="33" height="33" viewBox="0 0 33 33" fill="none" xmlns="http://www.w3.org/2000/svg">
<circle cx="20.5" cy="12.5" r="8.75" stroke="#C4C4C4" stroke-width="1.5"/>
<rect y="29.9742" width="19" height="4" rx="2" transform="rotate(-43.067 0 29.9742)" fill="#C4C4C4"/>
<path d="M8.62744 12H7.44678V4.17334L5.0791 5.04297V3.97656L8.44336 2.71338H8.62744V12Z" fill="#C4C4C4"/>
<path d="M25.4482 19H17.0635V17.8311L21.4932 12.9092C22.1494 12.165 22.6006 11.5615 22.8467 11.0986C23.0986 10.6299 23.2246 10.1465 23.2246 9.64844C23.2246 8.98047 23.0225 8.43262 22.6182 8.00488C22.2139 7.57715 21.6748 7.36328 21.001 7.36328C20.1924 7.36328 19.5625 7.59473 19.1113 8.05762C18.666 8.51465 18.4434 9.15332 18.4434 9.97363H16.8174C16.8174 8.7959 17.1953 7.84375 17.9512 7.11719C18.7129 6.39062 19.7295 6.02734 21.001 6.02734C22.1904 6.02734 23.1309 6.34082 23.8223 6.96777C24.5137 7.58887 24.8594 8.41797 24.8594 9.45508C24.8594 10.7148 24.0566 12.2148 22.4512 13.9551L19.0234 17.6729H25.4482V19Z" fill="#C4C4C4"/>
<path d="M27.4756 23.8076H28.3579C28.9123 23.7992 29.3481 23.6532 29.6655 23.3696C29.9829 23.0861 30.1416 22.7031 30.1416 22.2207C30.1416 21.1374 29.6021 20.5957 28.5229 20.5957C28.0151 20.5957 27.6089 20.7417 27.3042 21.0337C27.0037 21.3215 26.8535 21.7044 26.8535 22.1826H25.6792C25.6792 21.4505 25.9458 20.8433 26.479 20.3608C27.0164 19.8742 27.6978 19.6309 28.5229 19.6309C29.3947 19.6309 30.0781 19.8615 30.5732 20.3228C31.0684 20.784 31.3159 21.4251 31.3159 22.2461C31.3159 22.6481 31.1847 23.0374 30.9224 23.4141C30.6642 23.7907 30.3109 24.0721 29.8623 24.2583C30.3701 24.4191 30.7616 24.6857 31.0366 25.0581C31.3159 25.4305 31.4556 25.8854 31.4556 26.4229C31.4556 27.2523 31.1847 27.9103 30.6431 28.397C30.1014 28.8836 29.3968 29.127 28.5293 29.127C27.6618 29.127 26.9551 28.8921 26.4092 28.4224C25.8675 27.9526 25.5967 27.3327 25.5967 26.5625H26.7773C26.7773 27.0492 26.936 27.4385 27.2534 27.7305C27.5708 28.0225 27.9961 28.1685 28.5293 28.1685C29.0964 28.1685 29.5301 28.0203 29.8306 27.7241C30.131 27.4279 30.2812 27.0026 30.2812 26.4482C30.2812 25.9108 30.1162 25.4982 29.7861 25.2104C29.4561 24.9227 28.98 24.7746 28.3579 24.7661H27.4756V23.8076Z" fill="#C4C4C4"/>
</svg>
